:SAMPLES-PER-SECOND 30
:FULLY-SPECIFIED
:DEGREES
370
root  -11.3681 36.9455 0.941316 90.1042 -72.7213 -97.9305
RightUpLeg  -20.2067 -29.0038 -7.32548
RightLeg  39.1175 1.83303 1.27839
RightFoot  27.8198 -8.34227 23.6806
RightToes  6.35927e-011 1.30204e-014 -6.03759e-014
Spine  20.4353 2.90059 -19.0468
Spine1  3.52838 -4.36097 22.103
HEad  -20.24 16.4588 8.78757
LeftShoulder1  1.49988 -3.18064 -15.6738
LeftArm  -2.82132 25.705 -51.1922
LeftForeArm  -165.152 -60.8159 -164.498
LeftHand  0.461189 3.33954 -25.3311
RightShoulder  1.44011 1.83591 20.6655
RightArm  -5.00378 -38.0447 40.5993
RightForeArm  177.942 72.1489 151.28
RightHand  -0.00983346 -7.4919 -1.81684
LeftUpLeg  -1.0926 -1.11803 45.5621
LeftLeg  26.2424 11.8056 6.66835
LeftFoot  0.222664 3.82559 -36.6418
LeftToes  7.40077e-010 7.2695e-011 -6.03601e-011
371
root  -11.6075 37.1739 -0.237836 90.3851 -70.2969 -95.7368
RightUpLeg  -19.9807 -29.9318 -2.83006
RightLeg  33.1438 3.44933 2.19207
RightFoot  30.7294 -9.911 26.0207
RightToes  6.35927e-011 1.30204e-014 -6.03759e-014
Spine  19.6136 2.00439 -19.6559
Spine1  1.00733 -5.02037 24.9656
HEad  -18.1955 17.9455 10.9814
LeftShoulder1  1.56041 -3.56234 -15.2613
LeftArm  0.74671 25.7702 -47.3654
LeftForeArm  -160.953 -55.3189 -167.781
LeftHand  0.615569 0.0803302 -12.5982
RightShoulder  1.62153 2.38797 21.2634
RightArm  -4.72077 -40.852 37.0863
RightForeArm  -179.068 67.5607 157.713
RightHand  -0.0330154 -5.22979 -4.99707
LeftUpLeg  -4.4029 -4.02768 47.3387
LeftLeg  28.9413 15.8805 9.64598
LeftFoot  3.81543 5.21394 -38.0747
LeftToes  7.40077e-010 7.2695e-011 -6.03601e-011
372
root  -11.7985 37.0311 -1.26767 92.6711 -68.9715 -97.2863
RightUpLeg  -19.0043 -26.1425 -0.471249
RightLeg  32.36 4.49471 2.82674
RightFoot  27.8927 -8.89436 25.1447
RightToes  6.35927e-011 1.30204e-014 -6.03759e-014
Spine  19.1396 1.77861 -17.958
Spine1  0.977522 -4.60786 23.6039
HEad  -19.0876 18.0284 11.1008
LeftShoulder1  1.59294 -3.70772 -15.2681
LeftArm  2.61718 23.3484 -44.0356
LeftForeArm  -160.895 -53.0209 -168.792
LeftHand  0.506383 -1.2947 -8.44549
RightShoulder  1.635 2.41679 21.3527
RightArm  -5.05543 -41.3286 36.4155
RightForeArm  -177.684 65.4714 159.875
RightHand  -0.114938 -3.74967 -7.39897
LeftUpLeg  -7.06653 -1.93633 47.6971
LeftLeg  35.0789 17.3584 13.0337
LeftFoot  3.1508 4.96093 -37.8146
LeftToes  7.40077e-010 7.2695e-011 -6.03601e-011
373
root  -12.005 36.5587 -2.30377 92.1472 -68.3363 -98.2572
RightUpLeg  -15.3416 -20.2002 0.279232
RightLeg  33.7181 3.58046 2.31693
RightFoot  16.0059 -6.23401 25.8352
RightToes  6.35927e-011 1.30204e-014 -6.03759e-014
Spine  19.7289 2.13293 -15.5286
Spine1  2.54619 -3.98829 21.6987
HEad  -20.3388 17.4352 9.73873
LeftShoulder1  1.48686 -3.32137 -14.9414
LeftArm  2.4004 21.0099 -44.7566
LeftForeArm  -162.076 -55.9855 -167.318
LeftHand  0.573901 -0.622084 -11.2545
RightShoulder  1.45278 1.96093 20.2534
RightArm  -5.31457 -39.2218 38.5107
RightForeArm  -178.831 66.964 158.237
RightHand  -0.128309 -3.15215 -5.80259
LeftUpLeg  -7.94546 1.38282 47.9663
LeftLeg  40.3013 19.1322 16.9266
LeftFoot  1.65204 4.05467 -34.66
LeftToes  7.40077e-010 7.2695e-011 -6.03601e-011
374
root  -12.2559 35.8012 -3.22573 85.9222 -69.1089 -93.7258
RightUpLeg  -11.7234 -16.8527 -0.198058
RightLeg  35.7158 2.34323 1.55477
RightFoot  1.5737 -3.2518 28.2275
RightToes  6.35927e-011 1.30204e-014 -6.03759e-014
Spine  21.3119 2.30502 -13.9441
Spine1  2.71391 -3.85466 21.7343
HEad  -20.0232 15.7918 7.88748
LeftShoulder1  1.47782 -3.08913 -15.6195
LeftArm  0.983228 19.9474 -47.6881
LeftForeArm  -163.442 -63.9866 -162.193
LeftHand  0.382213 2.49942 -16.796
RightShoulder  1.33274 1.65553 19.457
RightArm  -4.89854 -35.8991 40.3271
RightForeArm  176.933 71.6663 151.701
RightHand  -0.0441055 -2.95387 -1.37444
LeftUpLeg  -9.79406 2.66273 48.0671
LeftLeg  44.3782 19.1352 19.2956
LeftFoot  0.378033 3.33506 -31.7991
LeftToes  7.40077e-010 7.2695e-011 -6.03601e-011
